<svg width="1062.567529296875px" height="415.54747314453124px" xmlns="http://www.w3.org/2000/svg" viewBox="-281.28376464843745 -132.77373657226562 1062.567529296875 415.54747314453124" style="background: rgba(0, 0, 0, 0);" preserveAspectRatio="xMidYMid"><defs><filter id="editing-extrusion" x="-100%" y="-100%" width="300%" height="300%"><feFlood result="color1" flood-color="#ffffff"></feFlood><feConvolveMatrix order="1,1" divisor="1" kernelMatrix="1" in="SourceAlpha" result="extrude"></feConvolveMatrix><feComposite in="color1" in2="extrude" result="comp-extrude" operator="in"></feComposite><feOffset dx="0.5" dy="0.5" in="comp-extrude" result="offset-extrude"></feOffset><feMerge><feMergeNode in="offset-extrude"></feMergeNode><feMergeNode in="SourceGraphic"></feMergeNode></feMerge></filter></defs><g filter="url(#editing-extrusion)"><g transform="translate(-135.79999351501465, 144.8000030517578)"><path d="M102.20-49.20L26.80-49.20L26.80-49.20Q26.80-31 34.30-21.10L34.30-21.10L34.30-21.10Q41.80-11.20 56.40-11.20L56.40-11.20L56.40-11.20Q67.80-11.20 74.70-15.80L74.70-15.80L74.70-15.80Q81.60-20.40 84-27.40L84-27.40L99.40-23L99.40-23Q90 2 56.40 2L56.40 2L56.40 2Q33 2 20.70-12L20.70-12L20.70-12Q8.40-26 8.40-53.60L8.40-53.60L8.40-53.60Q8.40-79.60 20.70-93.60L20.70-93.60L20.70-93.60Q33-107.60 55.60-107.60L55.60-107.60L55.60-107.60Q102.20-107.60 102.20-51.40L102.20-51.40L102.20-49.20ZM27-62.60L84-62.60L84-62.60Q82.60-79.20 75.60-86.90L75.60-86.90L75.60-86.90Q68.60-94.60 55.40-94.60L55.40-94.60L55.40-94.60Q42.60-94.60 35.10-86.10L35.10-86.10L35.10-86.10Q27.60-77.60 27-62.60L27-62.60ZM168.80-45.40L120-45.40L120-61L168.80-61L168.80-45.40ZM309 0L285.80 0L230.80-66.40L212.80-52.80L212.80 0L194.20 0L194.20-137.60L212.80-137.60L212.80-68.60L279.20-137.60L301.20-137.60L242.60-77.80L309 0ZM351.40 2L351.40 2L351.40 2Q335.40 2 327.40-6.40L327.40-6.40L327.40-6.40Q319.40-14.80 319.40-29.40L319.40-29.40L319.40-29.40Q319.40-45.80 330.20-54.60L330.20-54.60L330.20-54.60Q341-63.40 365-64L365-64L388.80-64.40L388.80-70.20L388.80-70.20Q388.80-83.20 383.30-88.70L383.30-88.70L383.30-88.70Q377.80-94.20 366-94.20L366-94.20L366-94.20Q354.20-94.20 348.90-90.20L348.90-90.20L348.90-90.20Q343.60-86.20 342.40-77.40L342.40-77.40L324-79.20L324-79.20Q328.60-107.60 366.40-107.60L366.40-107.60L366.40-107.60Q386.40-107.60 396.50-98.50L396.50-98.50L396.50-98.50Q406.60-89.40 406.60-72L406.60-72L406.60-26.60L406.60-26.60Q406.60-18.80 408.60-14.80L408.60-14.80L408.60-14.80Q410.60-10.80 416.40-10.80L416.40-10.80L416.40-10.80Q419-10.80 422.20-11.60L422.20-11.60L422.20-0.60L422.20-0.60Q415.40 1 408.60 1L408.60 1L408.60 1Q398.80 1 394.40-4.10L394.40-4.10L394.40-4.10Q390-9.20 389.40-20.20L389.40-20.20L388.80-20.20L388.80-20.20Q382-8.20 373.10-3.10L373.10-3.10L373.10-3.10Q364.20 2 351.40 2ZM355.40-11.20L355.40-11.20L355.40-11.20Q365-11.20 372.50-15.60L372.50-15.60L372.50-15.60Q380-20 384.40-27.70L384.40-27.70L384.40-27.70Q388.80-35.40 388.80-43.40L388.80-43.40L388.80-52.20L369.40-51.80L369.40-51.80Q357-51.60 350.70-49.20L350.70-49.20L350.70-49.20Q344.40-46.80 340.90-42L340.90-42L340.90-42Q337.40-37.20 337.40-29.20L337.40-29.20L337.40-29.20Q337.40-20.60 342.10-15.90L342.10-15.90L342.10-15.90Q346.80-11.20 355.40-11.20ZM520.40 0L502.60 0L502.60-67L502.60-67Q502.60-77.40 500.60-83.20L500.60-83.20L500.60-83.20Q498.60-89 494.10-91.50L494.10-91.50L494.10-91.50Q489.60-94 481-94L481-94L481-94Q468.20-94 460.90-85.30L460.90-85.30L460.90-85.30Q453.60-76.60 453.60-61.20L453.60-61.20L453.60 0L436 0L436-83.20L436-83.20Q436-101.60 435.40-105.60L435.40-105.60L452-105.60L452-105.60Q452-105.20 452.10-103L452.10-103L452.10-103Q452.20-100.80 452.40-98.10L452.40-98.10L452.40-98.10Q452.60-95.40 452.80-87.60L452.80-87.60L453-87.60L453-87.60Q459.20-98.60 467.10-103.10L467.10-103.10L467.10-103.10Q475-107.60 486.80-107.60L486.80-107.60L486.80-107.60Q504.20-107.60 512.30-99L512.30-99L512.30-99Q520.40-90.40 520.40-70.40L520.40-70.40L520.40 0ZM587.40-13.80L587.40-0.80L587.40-0.80Q578.80 1.60 569.80 1.60L569.80 1.60L569.80 1.60Q548.60 1.60 548.60-22.40L548.60-22.40L548.60-92.80L536.40-92.80L536.40-105.60L549.20-105.60L554.40-129.20L566.20-129.20L566.20-105.60L585.80-105.60L585.80-92.80L566.20-92.80L566.20-26.20L566.20-26.20Q566.20-18.60 568.70-15.50L568.70-15.50L568.70-15.50Q571.20-12.40 577.40-12.40L577.40-12.40L577.40-12.40Q580.80-12.40 587.40-13.80L587.40-13.80ZM691.40-53L691.40-53L691.40-53Q691.40-25.20 679.20-11.60L679.20-11.60L679.20-11.60Q667 2 643.80 2L643.80 2L643.80 2Q620.60 2 608.80-12.10L608.80-12.10L608.80-12.10Q597-26.20 597-53L597-53L597-53Q597-107.60 644.40-107.60L644.40-107.60L644.40-107.60Q668.60-107.60 680-94.30L680-94.30L680-94.30Q691.40-81 691.40-53ZM673-53L673-53L673-53Q673-74.80 666.50-84.70L666.50-84.70L666.50-84.70Q660-94.60 644.60-94.60L644.60-94.60L644.60-94.60Q629.20-94.60 622.30-84.50L622.30-84.50L622.30-84.50Q615.40-74.40 615.40-53L615.40-53L615.40-53Q615.40-32 622.20-21.50L622.20-21.50L622.20-21.50Q629-11 643.60-11L643.60-11L643.60-11Q659.40-11 666.20-21.20L666.20-21.20L666.20-21.20Q673-31.40 673-53ZM731.40 0L713.80 0L713.80-81L713.80-81Q713.80-92.20 713.20-105.60L713.20-105.60L729.80-105.60L729.80-105.60Q730.60-87.60 730.60-84L730.60-84L731-84L731-84Q735.20-97.60 740.70-102.60L740.70-102.60L740.70-102.60Q746.20-107.60 756-107.60L756-107.60L756-107.60Q759.60-107.60 763.20-106.60L763.20-106.60L763.20-90.60L763.20-90.60Q759.60-91.60 753.80-91.60L753.80-91.60L753.80-91.60Q742.80-91.60 737.10-82.10L737.10-82.10L737.10-82.10Q731.40-72.60 731.40-55L731.40-55L731.40 0Z" fill="#ffffff"></path></g></g><style>text {
  font-size: 64px;
  font-family: Arial Black;
  dominant-baseline: central;
  text-anchor: middle;
}</style></svg>